<svg xmlns="http://www.w3.org/2000/svg" viewBox="0 0 980 560" font-family="system-ui,-apple-system,'Segoe UI',sans-serif">
<defs><filter id="ws" x="-5%" y="-5%" width="110%" height="112%">
<feDropShadow dx="0" dy="6" stdDeviation="14" flood-color="#000" flood-opacity="0.5"/></filter></defs>
<rect x="6" y="6" width="968" height="548" rx="14" fill="#0F1218" stroke="#2A313D" filter="url(#ws)"/>
<circle cx="30" cy="28" r="6" fill="#ff5f57"/><circle cx="50" cy="28" r="6" fill="#febc2e"/><circle cx="70" cy="28" r="6" fill="#28c840"/>
<rect x="360.0" y="17" width="260" height="22" rx="11" fill="#171B23" stroke="#2A313D"/>
<text x="490.0" y="32" font-size="11" fill="#5C6673" text-anchor="middle" font-family="ui-monospace,monospace">127.0.0.1:8787</text>
<g transform="translate(0,50)"><g transform="translate(34,12) scale(0.32)"><rect width="100" height="100" rx="22" fill="#141821" stroke="#2A313D"/>
<g fill="#5AA9A0"><rect x="14" y="21.5" width="72" height="9" rx="4.5"/><rect x="14" y="45.5" width="72" height="9" rx="4.5"/><rect x="14" y="69.5" width="72" height="9" rx="4.5"/></g>
<g fill="#E0A84E"><rect x="21.5" y="14" width="9" height="72" rx="4.5"/><rect x="45.5" y="14" width="9" height="72" rx="4.5"/><rect x="69.5" y="14" width="9" height="72" rx="4.5"/></g></g><text x="76" y="34" font-size="17" font-weight="700" fill="#E0A84E">loom</text><text x="122" y="34" font-size="12" fill="#5C6673">台账浏览</text><rect x="846" y="14" width="86" height="28" rx="14" fill="#171B23" stroke="#E0A84E"/><text x="889.0" y="33" font-size="12" fill="#E0A84E" text-anchor="middle">📅 按天</text><rect x="752" y="14" width="86" height="28" rx="14" fill="#171B23" stroke="#2A313D"/><text x="795.0" y="33" font-size="12" fill="#8A93A3" text-anchor="middle">🧵 主题</text><rect x="658" y="14" width="86" height="28" rx="14" fill="#171B23" stroke="#2A313D"/><text x="701.0" y="33" font-size="12" fill="#8A93A3" text-anchor="middle">🔍 搜索</text><line x1="24" y1="56" x2="956" y2="56" stroke="#2A313D"/><rect x="24" y="72" width="330" height="322" rx="12" fill="#171B23" stroke="#2A313D"/><rect x="40" y="86" width="30" height="26" rx="8" fill="#1D222C" stroke="#2A313D"/><text x="55" y="104" font-size="13" fill="#8A93A3" text-anchor="middle">‹</text><text x="189" y="104" font-size="14" font-weight="600" fill="#E8EAED" text-anchor="middle">2026 年 7 月 <tspan fill="#5C6673" font-size="11">412 条</tspan></text><rect x="308" y="86" width="30" height="26" rx="8" fill="#1D222C" stroke="#2A313D"/><text x="323" y="104" font-size="13" fill="#5C6673" text-anchor="middle">›</text><text x="62" y="130" font-size="10" fill="#5C6673" text-anchor="middle">一</text><text x="104" y="130" font-size="10" fill="#5C6673" text-anchor="middle">二</text><text x="146" y="130" font-size="10" fill="#5C6673" text-anchor="middle">三</text><text x="188" y="130" font-size="10" fill="#5C6673" text-anchor="middle">四</text><text x="230" y="130" font-size="10" fill="#5C6673" text-anchor="middle">五</text><text x="272" y="130" font-size="10" fill="#5C6673" text-anchor="middle">六</text><text x="314" y="130" font-size="10" fill="#5C6673" text-anchor="middle">日</text><rect x="128" y="140" width="36" height="36" rx="7" fill="rgba(224,168,78,.55)" stroke="none" stroke-width="2"/><text x="146" y="163" font-size="12" fill="#1a1408" text-anchor="middle">1</text><rect x="170" y="140" width="36" height="36" rx="7" fill="#171B23" stroke="#E0A84E" stroke-width="2"/><text x="188" y="163" font-size="12" fill="#5C6673" text-anchor="middle">2</text><rect x="212" y="140" width="36" height="36" rx="7" fill="rgba(224,168,78,.14)" stroke="none" stroke-width="2"/><text x="230" y="163" font-size="12" fill="#E8EAED" text-anchor="middle">3</text><rect x="254" y="140" width="36" height="36" rx="7" fill="rgba(224,168,78,.14)" stroke="none" stroke-width="2"/><text x="272" y="163" font-size="12" fill="#E8EAED" text-anchor="middle">4</text><rect x="296" y="140" width="36" height="36" rx="7" fill="rgba(224,168,78,.55)" stroke="none" stroke-width="2"/><text x="314" y="163" font-size="12" fill="#1a1408" text-anchor="middle">5</text><rect x="44" y="182" width="36" height="36" rx="7" fill="#171B23" stroke="none" stroke-width="2"/><text x="62" y="205" font-size="12" fill="#5C6673" text-anchor="middle">6</text><rect x="86" y="182" width="36" height="36" rx="7" fill="#171B23" stroke="none" stroke-width="2"/><text x="104" y="205" font-size="12" fill="#5C6673" text-anchor="middle">7</text><rect x="128" y="182" width="36" height="36" rx="7" fill="rgba(224,168,78,.14)" stroke="none" stroke-width="2"/><text x="146" y="205" font-size="12" fill="#E8EAED" text-anchor="middle">8</text><rect x="170" y="182" width="36" height="36" rx="7" fill="rgba(224,168,78,.14)" stroke="none" stroke-width="2"/><text x="188" y="205" font-size="12" fill="#E8EAED" text-anchor="middle">9</text><rect x="212" y="182" width="36" height="36" rx="7" fill="#171B23" stroke="none" stroke-width="2"/><text x="230" y="205" font-size="12" fill="#5C6673" text-anchor="middle">10</text><rect x="254" y="182" width="36" height="36" rx="7" fill="#171B23" stroke="none" stroke-width="2"/><text x="272" y="205" font-size="12" fill="#5C6673" text-anchor="middle">11</text><rect x="296" y="182" width="36" height="36" rx="7" fill="rgba(224,168,78,.55)" stroke="none" stroke-width="2"/><text x="314" y="205" font-size="12" fill="#1a1408" text-anchor="middle">12</text><rect x="44" y="224" width="36" height="36" rx="7" fill="rgba(224,168,78,.14)" stroke="none" stroke-width="2"/><text x="62" y="247" font-size="12" fill="#E8EAED" text-anchor="middle">13</text><rect x="86" y="224" width="36" height="36" rx="7" fill="rgba(224,168,78,.55)" stroke="none" stroke-width="2"/><text x="104" y="247" font-size="12" fill="#1a1408" text-anchor="middle">14</text><rect x="128" y="224" width="36" height="36" rx="7" fill="rgba(224,168,78,.32)" stroke="none" stroke-width="2"/><text x="146" y="247" font-size="12" fill="#E8EAED" text-anchor="middle">15</text><rect x="170" y="224" width="36" height="36" rx="7" fill="#171B23" stroke="none" stroke-width="2"/><text x="188" y="247" font-size="12" fill="#5C6673" text-anchor="middle">16</text><rect x="212" y="224" width="36" height="36" rx="7" fill="rgba(224,168,78,.55)" stroke="none" stroke-width="2"/><text x="230" y="247" font-size="12" fill="#1a1408" text-anchor="middle">17</text><rect x="254" y="224" width="36" height="36" rx="7" fill="rgba(224,168,78,.55)" stroke="none" stroke-width="2"/><text x="272" y="247" font-size="12" fill="#1a1408" text-anchor="middle">18</text><rect x="296" y="224" width="36" height="36" rx="7" fill="rgba(224,168,78,.55)" stroke="none" stroke-width="2"/><text x="314" y="247" font-size="12" fill="#1a1408" text-anchor="middle">19</text><rect x="44" y="266" width="36" height="36" rx="7" fill="rgba(224,168,78,.55)" stroke="none" stroke-width="2"/><text x="62" y="289" font-size="12" fill="#1a1408" text-anchor="middle">20</text><rect x="86" y="266" width="36" height="36" rx="7" fill="rgba(224,168,78,.55)" stroke="none" stroke-width="2"/><text x="104" y="289" font-size="12" fill="#1a1408" text-anchor="middle">21</text><rect x="128" y="266" width="36" height="36" rx="7" fill="#171B23" stroke="none" stroke-width="2"/><text x="146" y="289" font-size="12" fill="#5C6673" text-anchor="middle">22</text><rect x="170" y="266" width="36" height="36" rx="7" fill="rgba(224,168,78,.14)" stroke="none" stroke-width="2"/><text x="188" y="289" font-size="12" fill="#E8EAED" text-anchor="middle">23</text><rect x="212" y="266" width="36" height="36" rx="7" fill="#171B23" stroke="none" stroke-width="2"/><text x="230" y="289" font-size="12" fill="#5C6673" text-anchor="middle">24</text><rect x="254" y="266" width="36" height="36" rx="7" fill="rgba(224,168,78,.14)" stroke="none" stroke-width="2"/><text x="272" y="289" font-size="12" fill="#E8EAED" text-anchor="middle">25</text><rect x="296" y="266" width="36" height="36" rx="7" fill="#171B23" stroke="none" stroke-width="2"/><text x="314" y="289" font-size="12" fill="#5C6673" text-anchor="middle">26</text><rect x="44" y="308" width="36" height="36" rx="7" fill="rgba(224,168,78,.14)" stroke="none" stroke-width="2"/><text x="62" y="331" font-size="12" fill="#E8EAED" text-anchor="middle">27</text><rect x="86" y="308" width="36" height="36" rx="7" fill="rgba(224,168,78,.55)" stroke="none" stroke-width="2"/><text x="104" y="331" font-size="12" fill="#1a1408" text-anchor="middle">28</text><rect x="128" y="308" width="36" height="36" rx="7" fill="#171B23" stroke="none" stroke-width="2"/><text x="146" y="331" font-size="12" fill="#5C6673" text-anchor="middle">29</text><rect x="170" y="308" width="36" height="36" rx="7" fill="rgba(224,168,78,.32)" stroke="none" stroke-width="2"/><text x="188" y="331" font-size="12" fill="#E8EAED" text-anchor="middle">30</text><rect x="212" y="308" width="36" height="36" rx="7" fill="rgba(224,168,78,.14)" stroke="none" stroke-width="2"/><text x="230" y="331" font-size="12" fill="#E8EAED" text-anchor="middle">31</text><text x="380" y="94" font-size="14" fill="#E0A84E">📅 2026-07-02 · 14 条</text><text x="380" y="120" font-size="12" fill="#E0A84E">📋 report (1)</text><rect x="380" y="128" width="576" height="64" rx="11" fill="#171B23" stroke="#2A313D"/><text x="394" y="148" font-size="11" fill="#E0A84E">07-02</text><text x="472" y="148" font-size="11" fill="#8A93A3">日报</text><rect x="806" y="136" width="76" height="17" rx="8" fill="none" stroke="#2A313D"/><text x="844" y="148" font-size="10" fill="#8A93A3" text-anchor="middle"> report</text><text x="904" y="148" font-size="11" fill="#8A93A3">日报</text><text x="394" y="170" font-size="13" fill="#E8EAED">支付网关割接完成;对账差异清零;搜索双写开始放量 5%</text><text x="380" y="222" font-size="12" fill="#E0A84E">💻 commit (2)</text><rect x="380" y="230" width="576" height="64" rx="11" fill="#171B23" stroke="#2A313D"/><text x="394" y="250" font-size="11" fill="#E0A84E">07-02</text><text x="472" y="250" font-size="11" fill="#8A93A3">pay-core</text><rect x="806" y="238" width="76" height="17" rx="8" fill="none" stroke="#2A313D"/><text x="844" y="250" font-size="10" fill="#8A93A3" text-anchor="middle">💻 commit</text><text x="904" y="250" font-size="11" fill="#8A93A3">git</text><text x="394" y="272" font-size="13" fill="#E8EAED">feat(recon): 差异工单自动建单,阈值可配</text><rect x="380" y="302" width="576" height="64" rx="11" fill="#171B23" stroke="#2A313D"/><text x="394" y="322" font-size="11" fill="#E0A84E">07-02</text><text x="472" y="322" font-size="11" fill="#8A93A3">search-next</text><rect x="806" y="310" width="76" height="17" rx="8" fill="none" stroke="#2A313D"/><text x="844" y="322" font-size="10" fill="#8A93A3" text-anchor="middle">💻 commit</text><text x="904" y="322" font-size="11" fill="#8A93A3">git</text><text x="394" y="344" font-size="13" fill="#E8EAED">feat(search): 双写切读开关 + 影子流量比对面板</text><text x="380" y="396" font-size="12" fill="#E0A84E">💬 session (1)</text><rect x="380" y="404" width="576" height="64" rx="11" fill="#171B23" stroke="#2A313D"/><text x="394" y="424" font-size="11" fill="#E0A84E">07-02</text><text x="472" y="424" font-size="11" fill="#8A93A3">search-next</text><rect x="806" y="412" width="76" height="17" rx="8" fill="none" stroke="#2A313D"/><text x="844" y="424" font-size="10" fill="#8A93A3" text-anchor="middle">💬 session</text><text x="904" y="424" font-size="11" fill="#8A93A3">claude</text><text x="394" y="446" font-size="13" fill="#E8EAED">[10:14] [Mia] 影子比对 diff 率 0.3% 可以放量吗 → 结论:白名单先行 ✦</text></g></svg>