<svg xmlns="http://www.w3.org/2000/svg" viewBox="0 0 980 560" font-family="system-ui,-apple-system,'Segoe UI',sans-serif">
<defs><filter id="ws" x="-5%" y="-5%" width="110%" height="112%">
<feDropShadow dx="0" dy="6" stdDeviation="14" flood-color="#000" flood-opacity="0.5"/></filter></defs>
<rect x="6" y="6" width="968" height="548" rx="14" fill="#0F1218" stroke="#2A313D" filter="url(#ws)"/>
<circle cx="30" cy="28" r="6" fill="#ff5f57"/><circle cx="50" cy="28" r="6" fill="#febc2e"/><circle cx="70" cy="28" r="6" fill="#28c840"/>
<rect x="360.0" y="17" width="260" height="22" rx="11" fill="#171B23" stroke="#2A313D"/>
<text x="490.0" y="32" font-size="11" fill="#5C6673" text-anchor="middle" font-family="ui-monospace,monospace">127.0.0.1:8787</text>
<g transform="translate(0,50)"><g transform="translate(34,12) scale(0.32)"><rect width="100" height="100" rx="22" fill="#141821" stroke="#2A313D"/>
<g fill="#5AA9A0"><rect x="14" y="21.5" width="72" height="9" rx="4.5"/><rect x="14" y="45.5" width="72" height="9" rx="4.5"/><rect x="14" y="69.5" width="72" height="9" rx="4.5"/></g>
<g fill="#E0A84E"><rect x="21.5" y="14" width="9" height="72" rx="4.5"/><rect x="45.5" y="14" width="9" height="72" rx="4.5"/><rect x="69.5" y="14" width="9" height="72" rx="4.5"/></g></g><text x="76" y="34" font-size="17" font-weight="700" fill="#E0A84E">loom</text><text x="122" y="34" font-size="12" fill="#5C6673">台账浏览</text><rect x="846" y="14" width="86" height="28" rx="14" fill="#171B23" stroke="#2A313D"/><text x="889.0" y="33" font-size="12" fill="#8A93A3" text-anchor="middle">📅 按天</text><rect x="752" y="14" width="86" height="28" rx="14" fill="#171B23" stroke="#2A313D"/><text x="795.0" y="33" font-size="12" fill="#8A93A3" text-anchor="middle">🧵 主题</text><rect x="658" y="14" width="86" height="28" rx="14" fill="#171B23" stroke="#E0A84E"/><text x="701.0" y="33" font-size="12" fill="#E0A84E" text-anchor="middle">🔍 搜索</text><line x1="24" y1="56" x2="956" y2="56" stroke="#2A313D"/><rect x="170.0" y="82" width="640" height="52" rx="14" fill="#171B23" stroke="#E0A84E"/><text x="194.0" y="114" font-size="15" fill="#5C6673">搜你做过的任何事…(中文子串可用)</text><rect x="760.0" y="98" width="36" height="20" rx="6" fill="none" stroke="#2A313D"/><text x="778.0" y="112" font-size="10" fill="#5C6673" text-anchor="middle">⌘K</text><text x="490.0" y="156" font-size="12" fill="#5C6673" text-anchor="middle">一份台账,织进了你的全部工作痕迹</text><rect x="120.0" y="176" width="178" height="72" rx="13" fill="#171B23" stroke="#2A313D"/><text x="209.0" y="212" font-size="26" font-weight="750" fill="#E0A84E" text-anchor="middle">1,842</text><text x="209.0" y="234" font-size="11" fill="#8A93A3" text-anchor="middle">条记录</text><rect x="310.0" y="176" width="178" height="72" rx="13" fill="#171B23" stroke="#2A313D"/><text x="399.0" y="212" font-size="26" font-weight="750" fill="#E0A84E" text-anchor="middle">213</text><text x="399.0" y="234" font-size="11" fill="#8A93A3" text-anchor="middle">个活跃天</text><rect x="500.0" y="176" width="178" height="72" rx="13" fill="#171B23" stroke="#2A313D"/><text x="589.0" y="212" font-size="26" font-weight="750" fill="#E0A84E" text-anchor="middle">18</text><text x="589.0" y="234" font-size="11" fill="#8A93A3" text-anchor="middle">个主题</text><rect x="690.0" y="176" width="178" height="72" rx="13" fill="#171B23" stroke="#2A313D"/><text x="779.0" y="212" font-size="26" font-weight="750" fill="#E0A84E" text-anchor="middle">1,204</text><text x="779.0" y="234" font-size="11" fill="#8A93A3" text-anchor="middle">条已归类</text><rect x="120.0" y="264" width="740" height="150" rx="14" fill="#10141c" stroke="#2A313D"/><text x="138.0" y="288" font-size="11.5" fill="#8A93A3">最近 26 周 · <tspan fill="#E0A84E" font-weight="600">织物密度 = 当日入账</tspan>(金纬青经交替)· 点格子进当天</text><rect x="150.0" y="300" width="22" height="12" rx="3" fill="#E0A84E" fill-opacity="0.5"/><rect x="150.0" y="315" width="22" height="12" rx="3" fill="#1a202b" fill-opacity="1"/><rect x="150.0" y="330" width="22" height="12" rx="3" fill="#1a202b" fill-opacity="1"/><rect x="150.0" y="345" width="22" height="12" rx="3" fill="#1a202b" fill-opacity="1"/><rect x="150.0" y="360" width="22" height="12" rx="3" fill="#E0A84E" fill-opacity="0.5"/><rect x="150.0" y="375" width="22" height="12" rx="3" fill="#5AA9A0" fill-opacity="0.5"/><rect x="150.0" y="390" width="22" height="12" rx="3" fill="#E0A84E" fill-opacity="0.8"/><rect x="176.0" y="300" width="22" height="12" rx="3" fill="#1a202b" fill-opacity="1"/><rect x="176.0" y="315" width="22" height="12" rx="3" fill="#E0A84E" fill-opacity="0.28"/><rect x="176.0" y="330" width="22" height="12" rx="3" fill="#1a202b" fill-opacity="1"/><rect x="176.0" y="345" width="22" height="12" rx="3" fill="#1a202b" fill-opacity="1"/><rect x="176.0" y="360" width="22" height="12" rx="3" fill="#5AA9A0" fill-opacity="0.28"/><rect x="176.0" y="375" width="22" height="12" rx="3" fill="#1a202b" fill-opacity="1"/><rect x="176.0" y="390" width="22" height="12" rx="3" fill="#1a202b" fill-opacity="1"/><rect x="202.0" y="300" width="22" height="12" rx="3" fill="#E0A84E" fill-opacity="0.5"/><rect x="202.0" y="315" width="22" height="12" rx="3" fill="#5AA9A0" fill-opacity="0.28"/><rect x="202.0" y="330" width="22" height="12" rx="3" fill="#1a202b" fill-opacity="1"/><rect x="202.0" y="345" width="22" height="12" rx="3" fill="#5AA9A0" fill-opacity="0.28"/><rect x="202.0" y="360" width="22" height="12" rx="3" fill="#E0A84E" fill-opacity="0.8"/><rect x="202.0" y="375" width="22" height="12" rx="3" fill="#1a202b" fill-opacity="1"/><rect x="202.0" y="390" width="22" height="12" rx="3" fill="#E0A84E" fill-opacity="0.8"/><rect x="228.0" y="300" width="22" height="12" rx="3" fill="#5AA9A0" fill-opacity="0.5"/><rect x="228.0" y="315" width="22" height="12" rx="3" fill="#E0A84E" fill-opacity="0.28"/><rect x="228.0" y="330" width="22" height="12" rx="3" fill="#1a202b" fill-opacity="1"/><rect x="228.0" y="345" width="22" height="12" rx="3" fill="#E0A84E" fill-opacity="0.8"/><rect x="228.0" y="360" width="22" height="12" rx="3" fill="#1a202b" fill-opacity="1"/><rect x="228.0" y="375" width="22" height="12" rx="3" fill="#1a202b" fill-opacity="1"/><rect x="228.0" y="390" width="22" height="12" rx="3" fill="#1a202b" fill-opacity="1"/><rect x="254.0" y="300" width="22" height="12" rx="3" fill="#E0A84E" fill-opacity="0.8"/><rect x="254.0" y="315" width="22" height="12" rx="3" fill="#5AA9A0" fill-opacity="0.5"/><rect x="254.0" y="330" width="22" height="12" rx="3" fill="#E0A84E" fill-opacity="0.8"/><rect x="254.0" y="345" width="22" height="12" rx="3" fill="#5AA9A0" fill-opacity="0.5"/><rect x="254.0" y="360" width="22" height="12" rx="3" fill="#E0A84E" fill-opacity="0.28"/><rect x="254.0" y="375" width="22" height="12" rx="3" fill="#5AA9A0" fill-opacity="0.8"/><rect x="254.0" y="390" width="22" height="12" rx="3" fill="#E0A84E" fill-opacity="0.28"/><rect x="280.0" y="300" width="22" height="12" rx="3" fill="#5AA9A0" fill-opacity="0.28"/><rect x="280.0" y="315" width="22" height="12" rx="3" fill="#E0A84E" fill-opacity="0.8"/><rect x="280.0" y="330" width="22" height="12" rx="3" fill="#5AA9A0" fill-opacity="0.5"/><rect x="280.0" y="345" width="22" height="12" rx="3" fill="#E0A84E" fill-opacity="0.8"/><rect x="280.0" y="360" width="22" height="12" rx="3" fill="#5AA9A0" fill-opacity="0.28"/><rect x="280.0" y="375" width="22" height="12" rx="3" fill="#E0A84E" fill-opacity="0.5"/><rect x="280.0" y="390" width="22" height="12" rx="3" fill="#1a202b" fill-opacity="1"/><rect x="306.0" y="300" width="22" height="12" rx="3" fill="#1a202b" fill-opacity="1"/><rect x="306.0" y="315" width="22" height="12" rx="3" fill="#1a202b" fill-opacity="1"/><rect x="306.0" y="330" width="22" height="12" rx="3" fill="#1a202b" fill-opacity="1"/><rect x="306.0" y="345" width="22" height="12" rx="3" fill="#1a202b" fill-opacity="1"/><rect x="306.0" y="360" width="22" height="12" rx="3" fill="#1a202b" fill-opacity="1"/><rect x="306.0" y="375" width="22" height="12" rx="3" fill="#1a202b" fill-opacity="1"/><rect x="306.0" y="390" width="22" height="12" rx="3" fill="#E0A84E" fill-opacity="0.5"/><rect x="332.0" y="300" width="22" height="12" rx="3" fill="#5AA9A0" fill-opacity="0.28"/><rect x="332.0" y="315" width="22" height="12" rx="3" fill="#E0A84E" fill-opacity="0.28"/><rect x="332.0" y="330" width="22" height="12" rx="3" fill="#1a202b" fill-opacity="1"/><rect x="332.0" y="345" width="22" height="12" rx="3" fill="#1a202b" fill-opacity="1"/><rect x="332.0" y="360" width="22" height="12" rx="3" fill="#5AA9A0" fill-opacity="0.8"/><rect x="332.0" y="375" width="22" height="12" rx="3" fill="#E0A84E" fill-opacity="0.5"/><rect x="332.0" y="390" width="22" height="12" rx="3" fill="#5AA9A0" fill-opacity="0.5"/><rect x="358.0" y="300" width="22" height="12" rx="3" fill="#1a202b" fill-opacity="1"/><rect x="358.0" y="315" width="22" height="12" rx="3" fill="#5AA9A0" fill-opacity="0.5"/><rect x="358.0" y="330" width="22" height="12" rx="3" fill="#1a202b" fill-opacity="1"/><rect x="358.0" y="345" width="22" height="12" rx="3" fill="#5AA9A0" fill-opacity="0.28"/><rect x="358.0" y="360" width="22" height="12" rx="3" fill="#E0A84E" fill-opacity="0.8"/><rect x="358.0" y="375" width="22" height="12" rx="3" fill="#5AA9A0" fill-opacity="0.5"/><rect x="358.0" y="390" width="22" height="12" rx="3" fill="#E0A84E" fill-opacity="0.28"/><rect x="384.0" y="300" width="22" height="12" rx="3" fill="#5AA9A0" fill-opacity="0.5"/><rect x="384.0" y="315" width="22" height="12" rx="3" fill="#E0A84E" fill-opacity="0.8"/><rect x="384.0" y="330" width="22" height="12" rx="3" fill="#5AA9A0" fill-opacity="0.5"/><rect x="384.0" y="345" width="22" height="12" rx="3" fill="#1a202b" fill-opacity="1"/><rect x="384.0" y="360" width="22" height="12" rx="3" fill="#1a202b" fill-opacity="1"/><rect x="384.0" y="375" width="22" height="12" rx="3" fill="#1a202b" fill-opacity="1"/><rect x="384.0" y="390" width="22" height="12" rx="3" fill="#1a202b" fill-opacity="1"/><rect x="410.0" y="300" width="22" height="12" rx="3" fill="#1a202b" fill-opacity="1"/><rect x="410.0" y="315" width="22" height="12" rx="3" fill="#5AA9A0" fill-opacity="0.8"/><rect x="410.0" y="330" width="22" height="12" rx="3" fill="#E0A84E" fill-opacity="0.8"/><rect x="410.0" y="345" width="22" height="12" rx="3" fill="#1a202b" fill-opacity="1"/><rect x="410.0" y="360" width="22" height="12" rx="3" fill="#E0A84E" fill-opacity="0.5"/><rect x="410.0" y="375" width="22" height="12" rx="3" fill="#5AA9A0" fill-opacity="0.28"/><rect x="410.0" y="390" width="22" height="12" rx="3" fill="#E0A84E" fill-opacity="0.8"/><rect x="436.0" y="300" width="22" height="12" rx="3" fill="#5AA9A0" fill-opacity="0.28"/><rect x="436.0" y="315" width="22" height="12" rx="3" fill="#1a202b" fill-opacity="1"/><rect x="436.0" y="330" width="22" height="12" rx="3" fill="#1a202b" fill-opacity="1"/><rect x="436.0" y="345" width="22" height="12" rx="3" fill="#E0A84E" fill-opacity="0.28"/><rect x="436.0" y="360" width="22" height="12" rx="3" fill="#1a202b" fill-opacity="1"/><rect x="436.0" y="375" width="22" height="12" rx="3" fill="#E0A84E" fill-opacity="0.28"/><rect x="436.0" y="390" width="22" height="12" rx="3" fill="#5AA9A0" fill-opacity="0.8"/><rect x="462.0" y="300" width="22" height="12" rx="3" fill="#E0A84E" fill-opacity="0.28"/><rect x="462.0" y="315" width="22" height="12" rx="3" fill="#1a202b" fill-opacity="1"/><rect x="462.0" y="330" width="22" height="12" rx="3" fill="#E0A84E" fill-opacity="0.8"/><rect x="462.0" y="345" width="22" height="12" rx="3" fill="#5AA9A0" fill-opacity="0.28"/><rect x="462.0" y="360" width="22" height="12" rx="3" fill="#1a202b" fill-opacity="1"/><rect x="462.0" y="375" width="22" height="12" rx="3" fill="#1a202b" fill-opacity="1"/><rect x="462.0" y="390" width="22" height="12" rx="3" fill="#1a202b" fill-opacity="1"/><rect x="488.0" y="300" width="22" height="12" rx="3" fill="#5AA9A0" fill-opacity="0.5"/><rect x="488.0" y="315" width="22" height="12" rx="3" fill="#E0A84E" fill-opacity="0.5"/><rect x="488.0" y="330" width="22" height="12" rx="3" fill="#5AA9A0" fill-opacity="0.28"/><rect x="488.0" y="345" width="22" height="12" rx="3" fill="#1a202b" fill-opacity="1"/><rect x="488.0" y="360" width="22" height="12" rx="3" fill="#5AA9A0" fill-opacity="0.28"/><rect x="488.0" y="375" width="22" height="12" rx="3" fill="#E0A84E" fill-opacity="0.8"/><rect x="488.0" y="390" width="22" height="12" rx="3" fill="#5AA9A0" fill-opacity="0.28"/><rect x="514.0" y="300" width="22" height="12" rx="3" fill="#E0A84E" fill-opacity="0.8"/><rect x="514.0" y="315" width="22" height="12" rx="3" fill="#5AA9A0" fill-opacity="0.8"/><rect x="514.0" y="330" width="22" height="12" rx="3" fill="#1a202b" fill-opacity="1"/><rect x="514.0" y="345" width="22" height="12" rx="3" fill="#5AA9A0" fill-opacity="0.5"/><rect x="514.0" y="360" width="22" height="12" rx="3" fill="#E0A84E" fill-opacity="0.5"/><rect x="514.0" y="375" width="22" height="12" rx="3" fill="#5AA9A0" fill-opacity="0.28"/><rect x="514.0" y="390" width="22" height="12" rx="3" fill="#1a202b" fill-opacity="1"/><rect x="540.0" y="300" width="22" height="12" rx="3" fill="#5AA9A0" fill-opacity="0.5"/><rect x="540.0" y="315" width="22" height="12" rx="3" fill="#1a202b" fill-opacity="1"/><rect x="540.0" y="330" width="22" height="12" rx="3" fill="#5AA9A0" fill-opacity="0.28"/><rect x="540.0" y="345" width="22" height="12" rx="3" fill="#E0A84E" fill-opacity="0.28"/><rect x="540.0" y="360" width="22" height="12" rx="3" fill="#5AA9A0" fill-opacity="0.8"/><rect x="540.0" y="375" width="22" height="12" rx="3" fill="#E0A84E" fill-opacity="0.8"/><rect x="540.0" y="390" width="22" height="12" rx="3" fill="#1a202b" fill-opacity="1"/><rect x="566.0" y="300" width="22" height="12" rx="3" fill="#E0A84E" fill-opacity="0.28"/><rect x="566.0" y="315" width="22" height="12" rx="3" fill="#1a202b" fill-opacity="1"/><rect x="566.0" y="330" width="22" height="12" rx="3" fill="#E0A84E" fill-opacity="0.8"/><rect x="566.0" y="345" width="22" height="12" rx="3" fill="#5AA9A0" fill-opacity="0.8"/><rect x="566.0" y="360" width="22" height="12" rx="3" fill="#1a202b" fill-opacity="1"/><rect x="566.0" y="375" width="22" height="12" rx="3" fill="#5AA9A0" fill-opacity="0.5"/><rect x="566.0" y="390" width="22" height="12" rx="3" fill="#E0A84E" fill-opacity="0.5"/><rect x="592.0" y="300" width="22" height="12" rx="3" fill="#1a202b" fill-opacity="1"/><rect x="592.0" y="315" width="22" height="12" rx="3" fill="#E0A84E" fill-opacity="0.5"/><rect x="592.0" y="330" width="22" height="12" rx="3" fill="#5AA9A0" fill-opacity="0.28"/><rect x="592.0" y="345" width="22" height="12" rx="3" fill="#E0A84E" fill-opacity="0.5"/><rect x="592.0" y="360" width="22" height="12" rx="3" fill="#5AA9A0" fill-opacity="0.28"/><rect x="592.0" y="375" width="22" height="12" rx="3" fill="#1a202b" fill-opacity="1"/><rect x="592.0" y="390" width="22" height="12" rx="3" fill="#1a202b" fill-opacity="1"/><rect x="618.0" y="300" width="22" height="12" rx="3" fill="#1a202b" fill-opacity="1"/><rect x="618.0" y="315" width="22" height="12" rx="3" fill="#5AA9A0" fill-opacity="0.8"/><rect x="618.0" y="330" width="22" height="12" rx="3" fill="#E0A84E" fill-opacity="0.8"/><rect x="618.0" y="345" width="22" height="12" rx="3" fill="#5AA9A0" fill-opacity="0.8"/><rect x="618.0" y="360" width="22" height="12" rx="3" fill="#1a202b" fill-opacity="1"/><rect x="618.0" y="375" width="22" height="12" rx="3" fill="#1a202b" fill-opacity="1"/><rect x="618.0" y="390" width="22" height="12" rx="3" fill="#E0A84E" fill-opacity="0.8"/><rect x="644.0" y="300" width="22" height="12" rx="3" fill="#5AA9A0" fill-opacity="0.8"/><rect x="644.0" y="315" width="22" height="12" rx="3" fill="#1a202b" fill-opacity="1"/><rect x="644.0" y="330" width="22" height="12" rx="3" fill="#5AA9A0" fill-opacity="0.28"/><rect x="644.0" y="345" width="22" height="12" rx="3" fill="#1a202b" fill-opacity="1"/><rect x="644.0" y="360" width="22" height="12" rx="3" fill="#5AA9A0" fill-opacity="0.5"/><rect x="644.0" y="375" width="22" height="12" rx="3" fill="#E0A84E" fill-opacity="0.5"/><rect x="644.0" y="390" width="22" height="12" rx="3" fill="#1a202b" fill-opacity="1"/><rect x="670.0" y="300" width="22" height="12" rx="3" fill="#E0A84E" fill-opacity="0.28"/><rect x="670.0" y="315" width="22" height="12" rx="3" fill="#5AA9A0" fill-opacity="0.28"/><rect x="670.0" y="330" width="22" height="12" rx="3" fill="#1a202b" fill-opacity="1"/><rect x="670.0" y="345" width="22" height="12" rx="3" fill="#5AA9A0" fill-opacity="0.8"/><rect x="670.0" y="360" width="22" height="12" rx="3" fill="#E0A84E" fill-opacity="0.28"/><rect x="670.0" y="375" width="22" height="12" rx="3" fill="#1a202b" fill-opacity="1"/><rect x="670.0" y="390" width="22" height="12" rx="3" fill="#E0A84E" fill-opacity="0.28"/><rect x="696.0" y="300" width="22" height="12" rx="3" fill="#5AA9A0" fill-opacity="0.5"/><rect x="696.0" y="315" width="22" height="12" rx="3" fill="#1a202b" fill-opacity="1"/><rect x="696.0" y="330" width="22" height="12" rx="3" fill="#1a202b" fill-opacity="1"/><rect x="696.0" y="345" width="22" height="12" rx="3" fill="#E0A84E" fill-opacity="0.8"/><rect x="696.0" y="360" width="22" height="12" rx="3" fill="#5AA9A0" fill-opacity="0.5"/><rect x="696.0" y="375" width="22" height="12" rx="3" fill="#E0A84E" fill-opacity="0.28"/><rect x="696.0" y="390" width="22" height="12" rx="3" fill="#5AA9A0" fill-opacity="0.28"/><rect x="722.0" y="300" width="22" height="12" rx="3" fill="#1a202b" fill-opacity="1"/><rect x="722.0" y="315" width="22" height="12" rx="3" fill="#1a202b" fill-opacity="1"/><rect x="722.0" y="330" width="22" height="12" rx="3" fill="#1a202b" fill-opacity="1"/><rect x="722.0" y="345" width="22" height="12" rx="3" fill="#5AA9A0" fill-opacity="0.28"/><rect x="722.0" y="360" width="22" height="12" rx="3" fill="#1a202b" fill-opacity="1"/><rect x="722.0" y="375" width="22" height="12" rx="3" fill="#1a202b" fill-opacity="1"/><rect x="722.0" y="390" width="22" height="12" rx="3" fill="#1a202b" fill-opacity="1"/><rect x="748.0" y="300" width="22" height="12" rx="3" fill="#5AA9A0" fill-opacity="0.5"/><rect x="748.0" y="315" width="22" height="12" rx="3" fill="#1a202b" fill-opacity="1"/><rect x="748.0" y="330" width="22" height="12" rx="3" fill="#5AA9A0" fill-opacity="0.8"/><rect x="748.0" y="345" width="22" height="12" rx="3" fill="#E0A84E" fill-opacity="0.8"/><rect x="748.0" y="360" width="22" height="12" rx="3" fill="#1a202b" fill-opacity="1"/><rect x="748.0" y="375" width="22" height="12" rx="3" fill="#1a202b" fill-opacity="1"/><rect x="748.0" y="390" width="22" height="12" rx="3" fill="#5AA9A0" fill-opacity="0.5"/><rect x="774.0" y="300" width="22" height="12" rx="3" fill="#1a202b" fill-opacity="1"/><rect x="774.0" y="315" width="22" height="12" rx="3" fill="#1a202b" fill-opacity="1"/><rect x="774.0" y="330" width="22" height="12" rx="3" fill="#E0A84E" fill-opacity="0.8"/><rect x="774.0" y="345" width="22" height="12" rx="3" fill="#5AA9A0" fill-opacity="0.28"/><rect x="774.0" y="360" width="22" height="12" rx="3" fill="#E0A84E" fill-opacity="0.28"/><rect x="774.0" y="375" width="22" height="12" rx="3" fill="#5AA9A0" fill-opacity="0.5"/><rect x="774.0" y="390" width="22" height="12" rx="3" fill="#E0A84E" fill-opacity="0.8"/><rect x="800.0" y="300" width="22" height="12" rx="3" fill="#1a202b" fill-opacity="1"/><rect x="800.0" y="315" width="22" height="12" rx="3" fill="#1a202b" fill-opacity="1"/><rect x="800.0" y="330" width="22" height="12" rx="3" fill="#5AA9A0" fill-opacity="0.28"/><rect x="800.0" y="345" width="22" height="12" rx="3" fill="#E0A84E" fill-opacity="0.28"/><rect x="800.0" y="360" width="22" height="12" rx="3" fill="#5AA9A0" fill-opacity="0.28"/><rect x="800.0" y="375" width="22" height="12" rx="3" fill="#E0A84E" fill-opacity="0.5"/><rect x="800.0" y="390" width="22" height="12" rx="3" fill="#5AA9A0" fill-opacity="0.5"/><text x="190.0" y="444" font-size="11" fill="#8A93A3" text-anchor="end" font-family="ui-monospace,monospace">git</text><rect x="202.0" y="436" width="500" height="8" rx="4" fill="#1D222C"/><rect x="202.0" y="436" width="500" height="8" rx="4" fill="#E0A84E" fill-opacity="0.75"/><text x="718.0" y="444" font-size="10.5" fill="#5C6673" font-family="ui-monospace,monospace">520</text><text x="190.0" y="466" font-size="11" fill="#8A93A3" text-anchor="end" font-family="ui-monospace,monospace">claude</text><rect x="202.0" y="458" width="500" height="8" rx="4" fill="#1D222C"/><rect x="202.0" y="458" width="288" height="8" rx="4" fill="#E0A84E" fill-opacity="0.75"/><text x="718.0" y="466" font-size="10.5" fill="#5C6673" font-family="ui-monospace,monospace">300</text><text x="190.0" y="488" font-size="11" fill="#8A93A3" text-anchor="end" font-family="ui-monospace,monospace">docs</text><rect x="202.0" y="480" width="500" height="8" rx="4" fill="#1D222C"/><rect x="202.0" y="480" width="202" height="8" rx="4" fill="#E0A84E" fill-opacity="0.75"/><text x="718.0" y="488" font-size="10.5" fill="#5C6673" font-family="ui-monospace,monospace">210</text></g></svg>