<svg xmlns="http://www.w3.org/2000/svg" viewBox="0 0 980 620" font-family="system-ui,-apple-system,'Segoe UI',sans-serif">
<defs><filter id="ws" x="-5%" y="-5%" width="110%" height="112%">
<feDropShadow dx="0" dy="6" stdDeviation="14" flood-color="#000" flood-opacity="0.5"/></filter></defs>
<rect x="6" y="6" width="968" height="608" rx="14" fill="#0F1218" stroke="#2A313D" filter="url(#ws)"/>
<circle cx="30" cy="28" r="6" fill="#ff5f57"/><circle cx="50" cy="28" r="6" fill="#febc2e"/><circle cx="70" cy="28" r="6" fill="#28c840"/>
<rect x="360.0" y="17" width="260" height="22" rx="11" fill="#171B23" stroke="#2A313D"/>
<text x="490.0" y="32" font-size="11" fill="#5C6673" text-anchor="middle" font-family="ui-monospace,monospace">127.0.0.1:8787</text>
<g transform="translate(0,50)"><g transform="translate(34,12) scale(0.32)"><rect width="100" height="100" rx="22" fill="#141821" stroke="#2A313D"/>
<g fill="#5AA9A0"><rect x="14" y="21.5" width="72" height="9" rx="4.5"/><rect x="14" y="45.5" width="72" height="9" rx="4.5"/><rect x="14" y="69.5" width="72" height="9" rx="4.5"/></g>
<g fill="#E0A84E"><rect x="21.5" y="14" width="9" height="72" rx="4.5"/><rect x="45.5" y="14" width="9" height="72" rx="4.5"/><rect x="69.5" y="14" width="9" height="72" rx="4.5"/></g></g><text x="76" y="34" font-size="17" font-weight="700" fill="#E0A84E">loom</text><text x="122" y="34" font-size="12" fill="#5C6673">台账浏览</text><rect x="846" y="14" width="86" height="28" rx="14" fill="#171B23" stroke="#2A313D"/><text x="889.0" y="33" font-size="12" fill="#8A93A3" text-anchor="middle">📅 按天</text><rect x="752" y="14" width="86" height="28" rx="14" fill="#171B23" stroke="#E0A84E"/><text x="795.0" y="33" font-size="12" fill="#E0A84E" text-anchor="middle">🧵 主题</text><rect x="658" y="14" width="86" height="28" rx="14" fill="#171B23" stroke="#2A313D"/><text x="701.0" y="33" font-size="12" fill="#8A93A3" text-anchor="middle">🔍 搜索</text><line x1="24" y1="56" x2="956" y2="56" stroke="#2A313D"/><rect x="24" y="72" width="932" height="240" rx="14" fill="#10141c" stroke="#2A313D"/><path d="M172,112 C266.0,112 266.0,112 360,112" fill="none" stroke="#333d4b" stroke-width="1.5"/><path d="M172,112 C266.0,112 266.0,164 360,164" fill="none" stroke="#333d4b" stroke-width="1.5"/><path d="M172,164 C266.0,164 266.0,164 360,164" fill="none" stroke="#333d4b" stroke-width="1.5"/><path d="M172,164 C266.0,164 266.0,216 360,216" fill="none" stroke="#333d4b" stroke-width="1.5"/><path d="M472,112 C566.0,112 566.0,112 660,112" fill="none" stroke="#333d4b" stroke-width="1.5"/><path d="M172,216 C266.0,216 266.0,268 360,268" fill="none" stroke="#333d4b" stroke-width="1.5"/><path d="M472,216 C566.0,216 566.0,216 660,216" fill="none" stroke="#333d4b" stroke-width="1.5"/><rect x="60" y="96" width="112" height="32" rx="16" fill="rgba(224,168,78,0.30)" stroke="#8a6320" stroke-width="1.2"/><text x="73" y="117" font-size="12.5" fill="#E8EAED">支付网关</text><rect x="130.5" y="104" width="34" height="16" rx="8" fill="#E0A84E" opacity="0.9"/><text x="147.75" y="116" font-size="10" font-weight="700" fill="#0F1218" text-anchor="middle" font-family="ui-monospace,monospace">236</text><rect x="60" y="148" width="112" height="32" rx="16" fill="rgba(224,168,78,0.22)" stroke="#8a6320" stroke-width="1.2"/><text x="73" y="169" font-size="12.5" fill="#E8EAED">订单中心</text><rect x="130.5" y="156" width="34" height="16" rx="8" fill="#E0A84E" opacity="0.9"/><text x="147.75" y="168" font-size="10" font-weight="700" fill="#0F1218" text-anchor="middle" font-family="ui-monospace,monospace">158</text><rect x="60" y="200" width="112" height="32" rx="16" fill="rgba(224,168,78,0.17)" stroke="#8a6320" stroke-width="1.2"/><text x="73" y="221" font-size="12.5" fill="#E8EAED">搜索迁移</text><rect x="130.5" y="208" width="34" height="16" rx="8" fill="#E0A84E" opacity="0.9"/><text x="147.75" y="220" font-size="10" font-weight="700" fill="#0F1218" text-anchor="middle" font-family="ui-monospace,monospace">117</text><rect x="60" y="252" width="112" height="32" rx="16" fill="rgba(224,168,78,0.12)" stroke="#8a6320" stroke-width="1.2"/><text x="73" y="273" font-size="12.5" fill="#E8EAED">监控告警</text><rect x="138.0" y="260" width="27" height="16" rx="8" fill="#E0A84E" opacity="0.9"/><text x="151.5" y="272" font-size="10" font-weight="700" fill="#0F1218" text-anchor="middle" font-family="ui-monospace,monospace">64</text><rect x="360" y="96" width="112" height="32" rx="16" fill="rgba(224,168,78,0.15)" stroke="#E0A84E" stroke-width="1.8"/><text x="373" y="117" font-size="12.5" fill="#E0A84E">对账服务</text><rect x="438.0" y="104" width="27" height="16" rx="8" fill="#5AA9A0" opacity="0.9"/><text x="451.5" y="116" font-size="10" font-weight="700" fill="#0F1218" text-anchor="middle" font-family="ui-monospace,monospace">98</text><rect x="660" y="96" width="112" height="32" rx="16" fill="rgba(224,168,78,0.09)" stroke="#2A313D" stroke-width="1.2"/><text x="673" y="117" font-size="12.5" fill="#E8EAED">幂等重试</text><rect x="738.0" y="104" width="27" height="16" rx="8" fill="#5AA9A0" opacity="0.9"/><text x="751.5" y="116" font-size="10" font-weight="700" fill="#0F1218" text-anchor="middle" font-family="ui-monospace,monospace">41</text><rect x="360" y="200" width="112" height="32" rx="16" fill="rgba(224,168,78,0.13)" stroke="#2A313D" stroke-width="1.2"/><text x="373" y="221" font-size="12.5" fill="#E8EAED">库存同步</text><rect x="438.0" y="208" width="27" height="16" rx="8" fill="#5AA9A0" opacity="0.9"/><text x="451.5" y="220" font-size="10" font-weight="700" fill="#0F1218" text-anchor="middle" font-family="ui-monospace,monospace">73</text><rect x="360" y="148" width="112" height="32" rx="16" fill="rgba(224,168,78,0.11)" stroke="#2A313D" stroke-width="1.2"/><text x="373" y="169" font-size="12.5" fill="#E8EAED">灰度发布 ↺</text><rect x="438.0" y="156" width="27" height="16" rx="8" fill="#5AA9A0" opacity="0.9"/><text x="451.5" y="168" font-size="10" font-weight="700" fill="#0F1218" text-anchor="middle" font-family="ui-monospace,monospace">55</text><rect x="360" y="252" width="166" height="32" rx="16" fill="rgba(224,168,78,0.14)" stroke="#2A313D" stroke-width="1.2"/><text x="373" y="273" font-size="12.5" fill="#E8EAED">ES→OpenSearch</text><rect x="492.0" y="260" width="27" height="16" rx="8" fill="#5AA9A0" opacity="0.9"/><text x="505.5" y="272" font-size="10" font-weight="700" fill="#0F1218" text-anchor="middle" font-family="ui-monospace,monospace">86</text><rect x="660" y="200" width="126" height="32" rx="16" fill="rgba(224,168,78,0.08)" stroke="#2A313D" stroke-width="1.2"/><text x="673" y="221" font-size="12.5" fill="#E8EAED">慢查询治理</text><rect x="752.0" y="208" width="27" height="16" rx="8" fill="#5AA9A0" opacity="0.9"/><text x="765.5" y="220" font-size="10" font-weight="700" fill="#0F1218" text-anchor="middle" font-family="ui-monospace,monospace">29</text><text x="30" y="336" font-size="11" fill="#5C6673">已归类 1,204 条 · ↺=多父(DAG)</text><text x="24" y="368" font-size="14" fill="#E0A84E">🧵 对账服务 · 上卷 98 条 <tspan fill="#5C6673" font-size="11">· parent: 支付网关</tspan></text><text x="24" y="392" font-size="12" fill="#E0A84E">💻 commit (2)</text><rect x="24" y="400" width="932" height="64" rx="11" fill="#171B23" stroke="#2A313D"/><text x="38" y="420" font-size="11" fill="#E0A84E">07-02</text><text x="116" y="420" font-size="11" fill="#8A93A3">pay-core</text><rect x="806" y="408" width="76" height="17" rx="8" fill="none" stroke="#2A313D"/><text x="844" y="420" font-size="10" fill="#8A93A3" text-anchor="middle">💻 commit</text><text x="904" y="420" font-size="11" fill="#8A93A3">git</text><text x="38" y="442" font-size="13" fill="#E8EAED">fix(gateway): 回调幂等键冲突时按 trace_id 重试,补对账缺口</text><text x="38" y="458" font-size="10.5" fill="#5AA9A0">🧵 对账服务</text><text x="24" y="492" font-size="12" fill="#E0A84E">💬 session (1)</text><rect x="24" y="500" width="932" height="64" rx="11" fill="#171B23" stroke="#2A313D"/><text x="38" y="520" font-size="11" fill="#E0A84E">07-01</text><text x="116" y="520" font-size="11" fill="#8A93A3">pay-core</text><rect x="806" y="508" width="76" height="17" rx="8" fill="none" stroke="#2A313D"/><text x="844" y="520" font-size="10" fill="#8A93A3" text-anchor="middle">💬 session</text><text x="904" y="520" font-size="11" fill="#8A93A3">claude</text><text x="38" y="542" font-size="13" fill="#E8EAED">对账差异根因:上游时区未归一,按 UTC 重放后差异归零 ✦</text><text x="38" y="558" font-size="10.5" fill="#5AA9A0">🧵 对账服务 · 幂等重试</text></g></svg>