<svg xmlns="http://www.w3.org/2000/svg" viewBox="0 0 980 620" font-family="system-ui,-apple-system,'Segoe UI',sans-serif">
<defs><filter id="ws" x="-5%" y="-5%" width="110%" height="112%">
<feDropShadow dx="0" dy="6" stdDeviation="14" flood-color="#000" flood-opacity="0.5"/></filter></defs>
<rect x="6" y="6" width="968" height="608" rx="14" fill="#0F1218" stroke="#2A313D" filter="url(#ws)"/>
<circle cx="30" cy="28" r="6" fill="#ff5f57"/><circle cx="50" cy="28" r="6" fill="#febc2e"/><circle cx="70" cy="28" r="6" fill="#28c840"/>
<rect x="360.0" y="17" width="260" height="22" rx="11" fill="#171B23" stroke="#2A313D"/>
<text x="490.0" y="32" font-size="11" fill="#5C6673" text-anchor="middle" font-family="ui-monospace,monospace">127.0.0.1:8787</text>
<g transform="translate(0,50)"><g transform="translate(34,12) scale(0.32)"><rect width="100" height="100" rx="22" fill="#141821" stroke="#2A313D"/>
<g fill="#5AA9A0"><rect x="14" y="21.5" width="72" height="9" rx="4.5"/><rect x="14" y="45.5" width="72" height="9" rx="4.5"/><rect x="14" y="69.5" width="72" height="9" rx="4.5"/></g>
<g fill="#E0A84E"><rect x="21.5" y="14" width="9" height="72" rx="4.5"/><rect x="45.5" y="14" width="9" height="72" rx="4.5"/><rect x="69.5" y="14" width="9" height="72" rx="4.5"/></g></g><text x="76" y="34" font-size="17" font-weight="700" fill="#E0A84E">loom</text><text x="122" y="34" font-size="12" fill="#5C6673">ledger browser</text><rect x="836" y="14" width="96" height="28" rx="14" fill="#171B23" stroke="#2A313D"/><text x="884.0" y="33" font-size="12" fill="#8A93A3" text-anchor="middle">📅 Days</text><rect x="732" y="14" width="96" height="28" rx="14" fill="#171B23" stroke="#E0A84E"/><text x="780.0" y="33" font-size="12" fill="#E0A84E" text-anchor="middle">🧵 Topics</text><rect x="628" y="14" width="96" height="28" rx="14" fill="#171B23" stroke="#2A313D"/><text x="676.0" y="33" font-size="12" fill="#8A93A3" text-anchor="middle">🔍 Search</text><line x1="24" y1="56" x2="956" y2="56" stroke="#2A313D"/><rect x="24" y="72" width="932" height="240" rx="14" fill="#10141c" stroke="#2A313D"/><path d="M220,112 C297.0,112 297.0,112 374,112" fill="none" stroke="#333d4b" stroke-width="1.5"/><path d="M220,112 C297.0,112 297.0,164 374,164" fill="none" stroke="#333d4b" stroke-width="1.5"/><path d="M172,164 C273.0,164 273.0,164 374,164" fill="none" stroke="#333d4b" stroke-width="1.5"/><path d="M172,164 C273.0,164 273.0,216 374,216" fill="none" stroke="#333d4b" stroke-width="1.5"/><path d="M542,112 C623.0,112 623.0,112 704,112" fill="none" stroke="#333d4b" stroke-width="1.5"/><path d="M228,216 C301.0,216 301.0,268 374,268" fill="none" stroke="#333d4b" stroke-width="1.5"/><path d="M542,216 C623.0,216 623.0,216 704,216" fill="none" stroke="#333d4b" stroke-width="1.5"/><rect x="44" y="96" width="176" height="32" rx="16" fill="rgba(224,168,78,0.30)" stroke="#8a6320" stroke-width="1.2"/><text x="57" y="117" font-size="12.5" fill="#E8EAED">Payment Gateway</text><rect x="178.5" y="104" width="34" height="16" rx="8" fill="#E0A84E" opacity="0.9"/><text x="195.75" y="116" font-size="10" font-weight="700" fill="#0F1218" text-anchor="middle" font-family="ui-monospace,monospace">236</text><rect x="44" y="148" width="128" height="32" rx="16" fill="rgba(224,168,78,0.22)" stroke="#8a6320" stroke-width="1.2"/><text x="57" y="169" font-size="12.5" fill="#E8EAED">Order Hub</text><rect x="130.5" y="156" width="34" height="16" rx="8" fill="#E0A84E" opacity="0.9"/><text x="147.75" y="168" font-size="10" font-weight="700" fill="#0F1218" text-anchor="middle" font-family="ui-monospace,monospace">158</text><rect x="44" y="200" width="184" height="32" rx="16" fill="rgba(224,168,78,0.17)" stroke="#8a6320" stroke-width="1.2"/><text x="57" y="221" font-size="12.5" fill="#E8EAED">Search Migration</text><rect x="186.5" y="208" width="34" height="16" rx="8" fill="#E0A84E" opacity="0.9"/><text x="203.75" y="220" font-size="10" font-weight="700" fill="#0F1218" text-anchor="middle" font-family="ui-monospace,monospace">117</text><rect x="44" y="252" width="136" height="32" rx="16" fill="rgba(224,168,78,0.12)" stroke="#8a6320" stroke-width="1.2"/><text x="57" y="273" font-size="12.5" fill="#E8EAED">Monitoring</text><rect x="146.0" y="260" width="27" height="16" rx="8" fill="#E0A84E" opacity="0.9"/><text x="159.5" y="272" font-size="10" font-weight="700" fill="#0F1218" text-anchor="middle" font-family="ui-monospace,monospace">64</text><rect x="374" y="96" width="168" height="32" rx="16" fill="rgba(224,168,78,0.15)" stroke="#E0A84E" stroke-width="1.8"/><text x="387" y="117" font-size="12.5" fill="#E0A84E">Reconciliation</text><rect x="508.0" y="104" width="27" height="16" rx="8" fill="#5AA9A0" opacity="0.9"/><text x="521.5" y="116" font-size="10" font-weight="700" fill="#0F1218" text-anchor="middle" font-family="ui-monospace,monospace">98</text><rect x="704" y="96" width="184" height="32" rx="16" fill="rgba(224,168,78,0.09)" stroke="#2A313D" stroke-width="1.2"/><text x="717" y="117" font-size="12.5" fill="#E8EAED">Idempotent Retry</text><rect x="854.0" y="104" width="27" height="16" rx="8" fill="#5AA9A0" opacity="0.9"/><text x="867.5" y="116" font-size="10" font-weight="700" fill="#0F1218" text-anchor="middle" font-family="ui-monospace,monospace">41</text><rect x="374" y="200" width="168" height="32" rx="16" fill="rgba(224,168,78,0.13)" stroke="#2A313D" stroke-width="1.2"/><text x="387" y="221" font-size="12.5" fill="#E8EAED">Inventory Sync</text><rect x="508.0" y="208" width="27" height="16" rx="8" fill="#5AA9A0" opacity="0.9"/><text x="521.5" y="220" font-size="10" font-weight="700" fill="#0F1218" text-anchor="middle" font-family="ui-monospace,monospace">73</text><rect x="374" y="148" width="168" height="32" rx="16" fill="rgba(224,168,78,0.11)" stroke="#2A313D" stroke-width="1.2"/><text x="387" y="169" font-size="12.5" fill="#E8EAED">Canary Release ↺</text><rect x="508.0" y="156" width="27" height="16" rx="8" fill="#5AA9A0" opacity="0.9"/><text x="521.5" y="168" font-size="10" font-weight="700" fill="#0F1218" text-anchor="middle" font-family="ui-monospace,monospace">55</text><rect x="374" y="252" width="166" height="32" rx="16" fill="rgba(224,168,78,0.14)" stroke="#2A313D" stroke-width="1.2"/><text x="387" y="273" font-size="12.5" fill="#E8EAED">ES→OpenSearch</text><rect x="506.0" y="260" width="27" height="16" rx="8" fill="#5AA9A0" opacity="0.9"/><text x="519.5" y="272" font-size="10" font-weight="700" fill="#0F1218" text-anchor="middle" font-family="ui-monospace,monospace">86</text><rect x="704" y="200" width="152" height="32" rx="16" fill="rgba(224,168,78,0.08)" stroke="#2A313D" stroke-width="1.2"/><text x="717" y="221" font-size="12.5" fill="#E8EAED">Slow Queries</text><rect x="822.0" y="208" width="27" height="16" rx="8" fill="#5AA9A0" opacity="0.9"/><text x="835.5" y="220" font-size="10" font-weight="700" fill="#0F1218" text-anchor="middle" font-family="ui-monospace,monospace">29</text><text x="30" y="336" font-size="11" fill="#5C6673">1,204 classified · ↺ = multi-parent (DAG)</text><text x="24" y="368" font-size="14" fill="#E0A84E">🧵 Reconciliation · rolled up 98 <tspan fill="#5C6673" font-size="11">· parent: Payment Gateway</tspan></text><text x="24" y="392" font-size="12" fill="#E0A84E">💻 commit (2)</text><rect x="24" y="400" width="932" height="64" rx="11" fill="#171B23" stroke="#2A313D"/><text x="38" y="420" font-size="11" fill="#E0A84E">07-02</text><text x="116" y="420" font-size="11" fill="#8A93A3">pay-core</text><rect x="806" y="408" width="76" height="17" rx="8" fill="none" stroke="#2A313D"/><text x="844" y="420" font-size="10" fill="#8A93A3" text-anchor="middle">💻 commit</text><text x="904" y="420" font-size="11" fill="#8A93A3">git</text><text x="38" y="442" font-size="13" fill="#E8EAED">fix(gateway): retry by trace_id on idempotency-key conflict; close recon gap</text><text x="38" y="458" font-size="10.5" fill="#5AA9A0">🧵 Reconciliation</text><text x="24" y="492" font-size="12" fill="#E0A84E">💬 session (1)</text><rect x="24" y="500" width="932" height="64" rx="11" fill="#171B23" stroke="#2A313D"/><text x="38" y="520" font-size="11" fill="#E0A84E">07-01</text><text x="116" y="520" font-size="11" fill="#8A93A3">pay-core</text><rect x="806" y="508" width="76" height="17" rx="8" fill="none" stroke="#2A313D"/><text x="844" y="520" font-size="10" fill="#8A93A3" text-anchor="middle">💬 session</text><text x="904" y="520" font-size="11" fill="#8A93A3">claude</text><text x="38" y="542" font-size="13" fill="#E8EAED">Recon diff root cause: timestamps not UTC-normalized; replay clean ✦</text><text x="38" y="558" font-size="10.5" fill="#5AA9A0">🧵 Reconciliation · Idempotent Retry</text></g></svg>